<?xml version="1.0" encoding="UTF-8"?>
<svg id="a" data-name="logo" xmlns="http://www.w3.org/2000/svg" viewBox="0 0 141.73 141.73">
  <defs>
    <style>
/* Light Mode Color */
        .b {
        fill: #4c2400;
      }

/* Dark Mode Color */
  @media (prefers-color-scheme: dark) {
        .b {
        fill: #FFF;
      }
    }
    </style>  
  </defs>
  <path class="b" d="M126.65,99.73l-.17-.06h-.08s-.02-.01-.04-.02c-.16-.05-.35-.11-.58-.11-1.16,0-2.07.6-2.48,1.63-1.15,2.6-2.55,5.09-4.18,7.47l-.09-.04c-.76-.34-1.32-.93-1.7-1.82l-.09-.16c-.23-.35-.42-.77-.51-1.13L89.86,2.59h-2.98l-.98,3.66c-1.93,7.19-6.4,23.83-10.41,39.41-4.64-1.38-9.96-2.08-15.84-2.08-25.36.63-43.46,17.07-46.13,41.92-.13,1.81-.26,3.68-.26,5.54,0,4.07.44,7.85,1.33,11.55,4.29,18.03,17.32,31,34.86,34.71,5.93,1.24,11.23,1.84,16.21,1.84,26.67,0,50.64-13.61,62.58-35.56.23-.47.23-.79.23-1.09,0-1.32-.66-2.33-1.82-2.76ZM81.41,37.03c.55-2.1,1.06-4.03,1.51-5.75,1.2,4.84,3.28,12.83,5.69,21.59-2.58-2.48-5.85-4.5-9.78-6.04.92-3.52,1.79-6.83,2.58-9.8ZM64.88,135.58c-4.45,0-8.47-.42-12.28-1.28-8.26-1.79-15.05-7.51-19.62-16.51-4.75-9.51-5.75-19.16-5.75-25.58,0-1.68.12-3.25.24-4.93l.02-.33c2.06-27.44,18.13-39.94,32.19-39.94h1.43c3.15,0,8.01.36,13.61,2.02-1.8,6.73-3.43,13.03-4.75,18.14-1.41,5.43-2.62,10.12-2.82,10.6l-.11.26c-1.2,4.58-2.32,8.89-3.32,12.76-1.63,6.27-2.96,11.4-3.84,14.71-.32,1.28-.93,2.19-3.07,3.09l-.61.26v3.1h9.68v-3.13l-.65-.24c-1.95-.72-1.95-1.54-1.94-2.2.04-.1.09-.27.11-.48,1.12-4.05,2.16-8.14,3.27-12.47.54-2.13,1.09-4.27,1.65-6.43,1.88-6.96,4.01-15.15,6.07-23.08,1.19-4.6,2.39-9.21,3.57-13.69,7.59,3.1,12.11,7.86,13.8,14.5,4.06,16.26,8.56,33.41,10.77,41.41v.38c0,.76-.28,1.41-1.66,2.1l-.55.28v3.05h16.36c-11.52,14.32-31.21,23.63-51.8,23.63Z"/>
</svg>